<?xml version="1.0" encoding="utf-8"?>
<!-- Generator: Adobe Illustrator 15.0.0, SVG Export Plug-In . SVG Version: 6.00 Build 0)  -->
<!DOCTYPE svg PUBLIC "-//W3C//DTD SVG 1.1//EN" "http://www.w3.org/Graphics/SVG/1.1/DTD/svg11.dtd">
<svg version="1.1" id="Capa_1" xmlns="http://www.w3.org/2000/svg" xmlns:xlink="http://www.w3.org/1999/xlink" x="0px" y="0px"
	 width="500.951px" height="501px" viewBox="0 0 500.951 501" enable-background="new 0 0 500.951 501" xml:space="preserve">
<g display="none">
	<g display="inline">
		<path d="M382.259,42.276c-92.128,0.232-181.804,26.445-273.883,25.387c-17.828-0.2-49.354,26.581-17.908,26.942
			c92.248,1.058,181.827-25.163,273.883-25.387C382.09,69.178,413.674,42.204,382.259,42.276z"/>
		<path d="M405.962,171.519c-43.438,6.749-87.029,7.407-130.797,10.196c-46.813,2.99-93.187,11.735-140.072,4.641
			c-14.244-2.156-54.733,20.737-28.593,24.697c45.002,6.813,89.627,2.477,134.652-1.916c52.802-5.162,105.731-4.481,158.276-12.641
			C421.304,193.098,438.137,166.524,405.962,171.519z"/>
		<path d="M389.249,332.119c-38.646,12.897-85.893,6.941-125.748,4.191c-39.286-2.709-86.324,0.931-123.662-11.807
			c-10.662-3.64-52.24,13.451-38.101,18.268c48.497,16.537,109.876,11.848,160.697,14.693c47.968,2.686,97.162,1.019,143.014-14.283
			C436.903,332.688,407.124,326.154,389.249,332.119z"/>
	</g>
</g>
<g>
	<path d="M103.366,145.675c93.418-14.605,188.031,1.315,281.891-8.016c23.791-2.365,37.659-31.607,5.619-28.425
		c-93.884,9.331-188.296-6.613-281.891,8.016C85.73,120.881,71.454,150.669,103.366,145.675z"/>
	<path d="M95.711,268.408c61.202,1.13,121.273-11.014,182.323-12.297c37.339-0.785,77.996,4.48,114.461-6.493
		c9.066-2.726,20.208-7.968,19.848-18.846c-0.016-0.441-0.032-0.882-0.048-1.323c-0.353-10.525-19.928-10.148-33.563-3.439
		c-33.194,7.607-70.901,0.778-104.336,2.557c-53.812,2.87-107.078,12.762-161.09,11.76
		C94.709,239.991,64.231,267.822,95.711,268.408z"/>
	<path d="M379.822,362.412c-37.283,18.324-82.317,16.857-122.862,14.766c-48.488-2.502-96.776-5.933-144.704-13.965
		c-22.693-3.799-47.295,28.273-16.16,33.491c57.41,9.611,116.448,14.478,174.676,15.07c44.152,0.456,89.331-2.517,129.547-22.284
		C428.84,375.462,403.285,350.877,379.822,362.412z"/>
</g>
<g>
</g>
</svg>
