<svg xmlns="http://www.w3.org/2000/svg" xmlns:xlink="http://www.w3.org/1999/xlink" version="1.1" x="0px" y="0px" viewBox="0 0 50 62.5" enable-background="new 0 0 50 50" xml:space="preserve">
  <g display="none">
    <g transform="translate(0,-952.36218)" display="inline"><path d="M2.333,956.709v4.215h45v-4.215H2.333z M2.333,975.677v4.216h45v-4.216H2.333z M2.333,994.645v4.215h45v-4.215H2.333z"/></g>
  </g>
  <g display="none">
    <g display="inline"><path
      d="M47.497,38.328c0-0.494-0.03-2.256-0.078-4.711c-0.061-3.184-0.144-7.5-0.223-11.553c0,0,0,0,0-0.003    c0-0.001-0.001-0.002-0.001-0.004c-0.011-0.622-0.021-1.239-0.033-1.843c-0.086-4.538-0.156-8.447-0.155-9.509    c0-0.083,0-0.147,0.002-0.185c0.004-0.199,0.005-0.393,0.005-0.582c-0.001-1.314-0.087-2.417-0.353-3.392    c-0.199-0.728-0.513-1.393-0.983-1.946c-0.349-0.415-0.78-0.756-1.265-1.017c-0.721-0.391-1.547-0.613-2.486-0.747    c-0.939-0.133-2.006-0.18-3.247-0.181c-0.092,0-0.182,0-0.276,0C37.58,2.664,36.8,2.666,36.062,2.666    c-4.085,0-6.848-0.063-8.746-0.126s-2.906-0.127-3.589-0.127H23.68c-0.366,0.001-0.734,0.002-1.107,0.002    c-2.022,0-4.108-0.023-6.2-0.023c-2.173,0-4.352,0.025-6.476,0.129C8.207,2.6,6.834,2.962,5.741,3.621    c-0.819,0.492-1.46,1.152-1.919,1.898c-0.689,1.122-0.99,2.399-1.145,3.72c-0.148,1.327-0.146,2.72-0.146,4.129    c0,6.725-0.004,11.296-0.004,15.224c0,1.965,0.002,3.768,0.004,5.596v0.033c0,0.795-0.029,1.828-0.029,2.939    c0,1.209,0.033,2.508,0.187,3.74c0.159,1.23,0.411,2.395,0.979,3.385c0.42,0.723,0.946,1.318,1.541,1.775    c0.893,0.693,1.914,1.076,2.937,1.289c1.026,0.211,2.065,0.26,3.071,0.26c1.104,0,2.172-0.059,3.11-0.059    c0.095,0,0.187,0.004,0.279,0.004c0.745,0.01,1.543,0.014,2.387,0.014c6.06,0,14.487-0.227,21.947-0.227    c1.739-0.002,3.114-0.123,4.271-0.447c0.864-0.242,1.612-0.615,2.213-1.154c0.452-0.398,0.807-0.883,1.069-1.412    c0.396-0.791,0.601-1.666,0.74-2.643c0.136-0.977,0.2-2.061,0.264-3.299c0.002-0.01,0-0.02,0-0.031    C47.493,38.346,47.497,38.336,47.497,38.328z M5.002,9.892C5.07,9.11,5.189,8.408,5.378,7.813    c0.288-0.896,0.691-1.521,1.354-2.001c0.665-0.477,1.679-0.84,3.28-0.918c2.063-0.101,4.205-0.126,6.359-0.126    c2.074,0,4.16,0.023,6.201,0.023c0.375,0,0.746,0,1.119-0.001h0.008h0.028c0.533-0.002,1.599,0.062,3.511,0.126    c1.921,0.063,4.716,0.126,8.824,0.126c0.74,0,1.527-0.001,2.356-0.006c0.087-0.001,0.174-0.001,0.261-0.001    c1.396-0.001,2.498,0.066,3.313,0.223c0.615,0.116,1.059,0.278,1.369,0.463c0.236,0.14,0.404,0.29,0.552,0.479    c0.221,0.282,0.403,0.681,0.53,1.298c0.13,0.613,0.193,1.425,0.193,2.441c0,0.174-0.004,0.352-0.006,0.538    c-0.003,0.062-0.003,0.137-0.003,0.228c0,1.167,0.075,5.369,0.167,10.171c-2.991,0.004-5.048,0.018-6.864,0.018    c-0.883,0-1.72-0.006-2.575-0.016c-0.37-0.866-0.844-1.696-1.458-2.457c-0.894-1.104-2.069-2.046-3.528-2.696    c-1.464-0.653-3.2-1.014-5.216-1.014h-0.051h-0.015h-0.005c-3.121-0.007-5.839,1.128-7.714,3.175    c-0.715,0.776-1.302,1.677-1.757,2.676c-3.376,0-6.547-0.01-10.707-0.176c0.001-2.069,0.001-4.377,0.001-7.019    C4.908,12.117,4.91,10.935,5.002,9.892z M19.121,19.497c1.41-1.522,3.396-2.399,5.964-2.406h0.009    c0.001,0,0.005-0.001,0.008-0.001c0.002,0,0.006,0.001,0.007,0.001h0.047c1.737,0,3.128,0.307,4.246,0.806    c1.674,0.751,2.781,1.93,3.521,3.368c0.181,0.354,0.34,0.726,0.474,1.106c0.01,0.047,0.022,0.094,0.041,0.136    c0.375,1.128,0.562,2.347,0.569,3.541v0.064c0,2.082-0.786,4.096-2.249,5.586c-1.468,1.484-3.605,2.484-6.496,2.49    c-1.813,0.006-3.98-0.652-5.609-1.975c-0.818-0.662-1.51-1.48-2-2.475c-0.489-0.998-0.788-2.174-0.789-3.582    C16.864,23.271,17.717,21.024,19.121,19.497z M44.314,43.361c-0.153,0.279-0.323,0.484-0.547,0.668    c-0.334,0.27-0.824,0.508-1.613,0.68c-0.787,0.168-1.848,0.256-3.218,0.256c-7.502,0-15.939,0.229-21.945,0.229    c-0.836,0-1.624-0.006-2.354-0.016c-0.104-0.002-0.207-0.002-0.312-0.002c-1.03,0-2.092,0.059-3.11,0.059    c-1.234,0.002-2.396-0.092-3.324-0.41c-0.463-0.156-0.869-0.363-1.227-0.639c-0.355-0.279-0.667-0.623-0.941-1.094    c-0.301-0.504-0.549-1.42-0.676-2.486c-0.133-1.068-0.168-2.285-0.168-3.445c0-1.07,0.029-2.094,0.029-2.939v-0.035v-0.002    c-0.003-1.826-0.003-3.629-0.003-5.594c0-1.764,0-3.662,0-5.823c3.837,0.151,6.854,0.17,9.927,0.173    c-0.225,1.009-0.349,2.083-0.349,3.214c0,1.752,0.38,3.309,1.035,4.635c0.985,1.992,2.567,3.441,4.312,4.381    c1.747,0.943,3.661,1.393,5.429,1.393c3.451,0.008,6.278-1.244,8.192-3.203c1.917-1.953,2.931-4.57,2.931-7.25v-0.08v-0.002    c-0.008-0.908-0.103-1.84-0.289-2.762c0.604,0.004,1.209,0.005,1.837,0.005c1.836,0,3.9-0.014,6.909-0.018    c0.012,0.56,0.021,1.122,0.032,1.685c0.063,3.154,0.122,6.275,0.168,8.725c0.048,2.4,0.078,4.162,0.078,4.633    c-0.075,1.436-0.153,2.609-0.313,3.506C44.684,42.48,44.519,42.992,44.314,43.361z"/><path
      d="M22.196,31.189c1.015,0.543,2.112,0.805,3.146,0.805c1.963,0.008,3.625-0.717,4.747-1.865    c1.124-1.146,1.715-2.68,1.715-4.24v-0.041v-0.006c-0.016-1.471-0.39-3.075-1.445-4.385c-0.524-0.65-1.221-1.209-2.079-1.589    c-0.857-0.381-1.861-0.586-2.996-0.586h-0.018h-0.02h-0.004c0,0-0.001,0-0.002,0c-1.783-0.005-3.395,0.658-4.496,1.865    c-1.108,1.205-1.682,2.879-1.679,4.764c-0.001,1.008,0.22,1.926,0.606,2.707C20.252,29.795,21.186,30.645,22.196,31.189z     M22.494,22.757c0.639-0.684,1.521-1.088,2.752-1.095l0,0c0.004,0,0.006-0.001,0.009-0.001c0.005,0,0.009,0.001,0.013,0.001h0.016    c0.857,0,1.512,0.149,2.027,0.379c0.768,0.346,1.254,0.864,1.602,1.531c0.342,0.664,0.508,1.484,0.514,2.287v0.031    c-0.002,0.967-0.364,1.889-1.033,2.572c-0.675,0.68-1.648,1.15-3.049,1.154c-0.836,0.006-1.879-0.311-2.627-0.922    c-0.377-0.307-0.688-0.678-0.912-1.129c-0.221-0.449-0.358-0.986-0.36-1.654C21.446,24.49,21.86,23.446,22.494,22.757z"/><path
      d="M32.719,8.087c-0.016,0.033-0.033,0.063-0.049,0.097c-0.015,0.039-0.022,0.079-0.034,0.118    c-0.012,0.035-0.021,0.069-0.029,0.105c-0.007,0.041-0.012,0.083-0.013,0.126c-0.004,0.032-0.01,0.062-0.01,0.093    c0,0.008,0,0.015,0,0.021c0,0.008,0,0.016,0,0.022l0.233,6.326c0.021,0.642,0.553,1.15,1.193,1.145l7.005-0.041    c0.654-0.003,1.183-0.536,1.183-1.189V8.424c0-0.322-0.135-0.637-0.367-0.859c-0.232-0.223-0.552-0.343-0.872-0.329    c0,0-0.287,0.013-0.76,0.033c-1.419,0.057-4.513,0.17-6.426,0.17c-0.008,0-0.016,0.002-0.022,0.002    c-0.006,0-0.015-0.001-0.021-0.001c-0.036,0.001-0.065,0.01-0.099,0.015c-0.041,0.004-0.079,0.007-0.117,0.015    c-0.038,0.01-0.076,0.022-0.113,0.035c-0.038,0.013-0.072,0.021-0.108,0.038c-0.038,0.017-0.071,0.038-0.104,0.057    c-0.033,0.019-0.064,0.036-0.097,0.057c-0.029,0.023-0.059,0.048-0.09,0.075c-0.028,0.024-0.055,0.046-0.082,0.073    c-0.026,0.028-0.05,0.06-0.074,0.092c-0.022,0.028-0.047,0.055-0.066,0.086C32.756,8.015,32.738,8.052,32.719,8.087z     M35.15,13.758l-0.146-3.953c1.646-0.027,3.581-0.095,4.814-0.143v4.068L35.15,13.758z"/></g>
  </g>
  <g display="none"><polygon display="inline" points="47.479,43.919 28.049,24.488 46.455,6.082 43.406,3.032 25,21.44 6.592,3.032 3.543,6.081    21.951,24.488 2.521,43.919 5.57,46.968 25,27.537 44.43,46.967  "/></g>
  <g display="none">
    <g display="inline">
      <g><path fill="#000000" d="M6.483,10.606c11.654-1.822,23.458,0.164,35.167-1c2.968-0.295,4.698-3.943,0.701-3.546     c-11.712,1.164-23.491-0.825-35.167,1C4.283,7.514,2.501,11.229,6.483,10.606L6.483,10.606z"/></g>
    </g>
    <g display="inline">
      <g><path
        fill="#000000"
        d="M5.235,25.917c7.635,0.141,15.129-1.374,22.746-1.535c4.658-0.098,9.73,0.559,14.279-0.81     c1.131-0.34,2.521-0.994,2.476-2.351c-0.002-0.055-0.004-0.11-0.006-0.165c-0.067-2.029-5.875-0.822-5.795,1.553     c0.002,0.055,0.003,0.11,0.005,0.165c0.825-0.784,1.651-1.567,2.477-2.351c-4.341,1.307-9.425,0.286-13.889,0.523     c-6.714,0.358-13.359,1.592-20.097,1.468C5.11,22.373,1.308,25.845,5.235,25.917L5.235,25.917z"/></g>
    </g>
    <g display="inline">
      <g><path
        fill="#000000"
        d="M5.659,41.922c7.162,1.199,14.528,1.806,21.792,1.88c5.508,0.057,11.144-0.314,16.161-2.78     c3.559-1.749,0.37-4.815-2.557-3.377c-4.651,2.286-10.269,2.103-15.327,1.842c-6.05-0.312-12.073-0.74-18.053-1.742     C4.844,37.271,1.774,41.271,5.659,41.922L5.659,41.922z"/></g>
    </g>
  </g>
  <g>
    <g>
      <g><path
        fill="#000000"
        d="M5.936,9.11c4.01,6.15,9.822,10.435,15.783,14.566c5.788,4.012,14.842,8.7,16.884,15.933     c0.465,1.647,6.252,0.065,5.795-1.553c-1.773-6.283-8.475-10.403-13.527-13.927c-6.901-4.812-14.447-9.378-19.139-16.573     C10.655,5.907,5.25,8.059,5.936,9.11L5.936,9.11z"/></g>
    </g>
    <g>
      <g><path
        fill="#000000"
        d="M37.158,7.358c-5.19,6.268-11.474,11.478-16.922,17.507C14.6,31.103,10.918,38.91,7.281,46.408     c1.928-0.395,3.855-0.79,5.783-1.185c-0.056-0.223-0.111-0.444-0.167-0.667c-0.451-1.805-6.255-0.285-5.796,1.553     c0.056,0.223,0.111,0.444,0.167,0.667c0.51,2.041,5.201,0.017,5.783-1.185c3.557-7.332,7.191-14.564,12.535-20.775     c5.303-6.163,11.726-11.232,16.921-17.508C44.021,5.483,38.244,6.046,37.158,7.358L37.158,7.358z"/></g>
    </g>
  </g>
  <text x="0" y="65" fill="#000000" font-size="5px" font-weight="bold" font-family="'Helvetica Neue', Helvetica, Arial-Unicode, Arial, Sans-serif">Created by naiara</text>
  <text x="0" y="70" fill="#000000" font-size="5px" font-weight="bold" font-family="'Helvetica Neue', Helvetica, Arial-Unicode, Arial, Sans-serif">from the Noun Project</text>
</svg>
