<svg version="1.1" id="Capa_1" xmlns="http://www.w3.org/2000/svg" xmlns:xlink="http://www.w3.org/1999/xlink" x="0px" y="0px"
	 width="500.951px" height="501px" viewBox="0 0 500.951 501" enable-background="new 0 0 500.951 501" xml:space="preserve">
<g display="none">
	<g transform="translate(0,-952.36218)" display="inline">
		<path d="M68.776,987.206v33.788h360.721v-33.788H68.776z M68.776,1139.254v33.795h360.721v-33.795H68.776z M68.776,1291.302
			v33.787h360.721v-33.787H68.776z"/>
	</g>
</g>
<g display="none">
	<g display="inline">
		<path d="M430.811,307.237c0-3.96-0.24-18.084-0.625-37.764c-0.489-25.522-1.154-60.12-1.788-92.608c0,0,0,0,0-0.024
			c0-0.008-0.008-0.016-0.008-0.032c-0.088-4.986-0.168-9.932-0.265-14.774c-0.689-36.376-1.25-67.711-1.242-76.224
			c0-0.666,0-1.179,0.016-1.483c0.032-1.595,0.04-3.15,0.04-4.665c-0.008-10.533-0.697-19.375-2.829-27.19
			c-1.596-5.835-4.112-11.166-7.88-15.599c-2.798-3.327-6.253-6.06-10.141-8.152c-5.779-3.134-12.4-4.914-19.928-5.988
			c-7.526-1.066-16.08-1.443-26.027-1.451c-0.737,0-1.459,0-2.213,0c-6.605,0.072-12.857,0.088-18.773,0.088
			c-32.745,0-54.894-0.505-70.108-1.01c-15.214-0.505-23.294-1.018-28.77-1.018h-0.376c-2.935,0.008-5.884,0.016-8.874,0.016
			c-16.208,0-32.93-0.184-49.699-0.184c-17.419,0-34.886,0.2-51.911,1.034c-13.548,0.633-24.554,3.535-33.315,8.817
			C89.53,32.97,84.391,38.26,80.713,44.24c-5.523,8.994-7.937,19.23-9.179,29.819c-1.187,10.638-1.17,21.804-1.17,33.098
			c0,53.908-0.032,90.549-0.032,122.036c0,15.751,0.016,30.205,0.032,44.857v0.265c0,6.373-0.232,14.653-0.232,23.56
			c0,9.691,0.264,20.104,1.499,29.979c1.274,9.859,3.294,19.198,7.848,27.134c3.366,5.796,7.583,10.565,12.353,14.229
			c7.158,5.555,15.342,8.625,23.543,10.333c8.224,1.691,16.553,2.084,24.617,2.084c8.85,0,17.41-0.474,24.93-0.474
			c0.761,0,1.499,0.033,2.236,0.033c5.972,0.08,12.368,0.111,19.134,0.111c48.577,0,116.128-1.819,175.928-1.819
			c13.939-0.017,24.962-0.985,34.236-3.583c6.926-1.939,12.922-4.93,17.739-9.25c3.623-3.191,6.469-7.078,8.569-11.318
			c3.174-6.342,4.817-13.355,5.932-21.188c1.09-7.831,1.604-16.521,2.116-26.444c0.016-0.08,0-0.16,0-0.249
			C430.779,307.381,430.811,307.301,430.811,307.237z M90.171,79.294c0.546-6.269,1.499-11.896,3.015-16.666
			c2.309-7.182,5.539-12.192,10.854-16.04c5.331-3.823,13.459-6.733,26.292-7.358c16.537-0.81,33.708-1.01,50.975-1.01
			c16.625,0,33.346,0.185,49.707,0.185c3.006,0,5.979,0,8.97-0.008h0.064h0.224c4.273-0.016,12.818,0.497,28.145,1.01
			c15.398,0.505,37.804,1.01,70.733,1.01c5.932,0,12.24-0.008,18.886-0.048c0.697-0.008,1.395-0.008,2.093-0.008
			c11.189-0.008,20.023,0.529,26.557,1.788c4.93,0.93,8.489,2.229,10.974,3.711c1.892,1.123,3.238,2.325,4.425,3.84
			c1.771,2.261,3.23,5.459,4.249,10.405c1.042,4.914,1.547,11.423,1.547,19.567c0,1.395-0.032,2.822-0.048,4.312
			c-0.024,0.497-0.024,1.099-0.024,1.828c0,9.354,0.602,43.038,1.339,81.53c-23.977,0.032-40.465,0.145-55.022,0.145
			c-7.078,0-13.787-0.048-20.641-0.128c-2.966-6.942-6.766-13.595-11.688-19.695c-7.166-8.85-16.585-16.401-28.28-21.611
			c-11.736-5.234-25.651-8.128-41.812-8.128h-0.409h-0.12h-0.04c-25.019-0.056-46.806,9.042-61.836,25.451
			c-5.731,6.221-10.437,13.443-14.084,21.451c-27.062,0-52.48-0.081-85.827-1.411c0.008-16.585,0.008-35.086,0.008-56.264
			C89.418,97.13,89.433,87.655,90.171,79.294z M203.349,156.288c11.302-12.201,27.222-19.23,47.807-19.287h0.072
			c0.009,0,0.04-0.008,0.064-0.008c0.016,0,0.048,0.008,0.056,0.008h0.377c13.924,0,25.074,2.461,34.036,6.461
			c13.419,6.02,22.293,15.471,28.225,26.998c1.451,2.837,2.726,5.819,3.8,8.866c0.08,0.376,0.176,0.753,0.328,1.09
			c3.007,9.042,4.505,18.813,4.562,28.385v0.513c0,16.689-6.301,32.833-18.028,44.778c-11.768,11.895-28.897,19.911-52.072,19.959
			c-14.532,0.049-31.903-5.227-44.961-15.832c-6.558-5.307-12.104-11.863-16.032-19.839c-3.92-8-6.316-17.427-6.325-28.713
			C185.257,186.541,192.094,168.528,203.349,156.288z M405.297,347.582c-1.227,2.236-2.59,3.879-4.385,5.354
			c-2.678,2.164-6.605,4.072-12.93,5.45c-6.309,1.348-14.813,2.053-25.796,2.053c-60.136,0-127.768,1.836-175.911,1.836
			c-6.701,0-13.019-0.049-18.87-0.129c-0.833-0.016-1.659-0.016-2.501-0.016c-8.256,0-16.77,0.473-24.93,0.473
			c-9.892,0.016-19.206-0.737-26.645-3.286c-3.712-1.251-6.967-2.91-9.836-5.122c-2.846-2.236-5.347-4.994-7.543-8.77
			c-2.413-4.041-4.401-11.383-5.419-19.928c-1.066-8.562-1.347-18.316-1.347-27.615c0-8.577,0.232-16.785,0.232-23.559v-0.281
			v-0.016c-0.024-14.638-0.024-29.09-0.024-44.842c0-14.14,0-29.354,0-46.677c30.758,1.21,54.942,1.363,79.575,1.387
			c-1.804,8.088-2.798,16.697-2.798,25.764c0,14.044,3.046,26.525,8.297,37.154c7.896,15.968,20.577,27.583,34.564,35.118
			c14.004,7.56,29.347,11.167,43.52,11.167c27.663,0.063,50.324-9.973,65.667-25.676c15.367-15.655,23.495-36.633,23.495-58.116
			v-0.641v-0.016c-0.064-7.278-0.826-14.75-2.316-22.14c4.841,0.032,9.691,0.04,14.725,0.04c14.718,0,31.263-0.112,55.383-0.144
			c0.097,4.489,0.169,8.994,0.257,13.507c0.505,25.282,0.978,50.3,1.347,69.939c0.385,19.238,0.625,33.362,0.625,37.138
			c-0.602,11.512-1.227,20.914-2.509,28.104C408.262,340.52,406.939,344.624,405.297,347.582z"/>
		<path d="M227.998,250.011c8.137,4.352,16.931,6.453,25.219,6.453c15.735,0.063,29.058-5.748,38.052-14.95
			c9.01-9.187,13.748-21.483,13.748-33.988v-0.329v-0.048c-0.129-11.792-3.127-24.649-11.584-35.15
			c-4.2-5.21-9.787-9.691-16.665-12.738c-6.869-3.054-14.918-4.697-24.016-4.697h-0.145h-0.16h-0.032c0,0-0.008,0-0.016,0
			c-14.293-0.04-27.215,5.274-36.04,14.95c-8.882,9.66-13.483,23.078-13.459,38.188c-0.008,8.08,1.764,15.439,4.857,21.699
			C212.415,238.837,219.902,245.65,227.998,250.011z M230.387,182.42c5.122-5.483,12.191-8.721,22.06-8.777l0,0
			c0.032,0,0.048-0.008,0.072-0.008c0.04,0,0.072,0.008,0.104,0.008h0.128c6.87,0,12.12,1.194,16.248,3.038
			c6.156,2.773,10.053,6.926,12.842,12.272c2.741,5.323,4.072,11.896,4.12,18.333v0.249c-0.016,7.751-2.918,15.142-8.28,20.617
			c-5.411,5.451-13.21,9.218-24.44,9.25c-6.702,0.048-15.062-2.493-21.059-7.391c-3.021-2.461-5.515-5.435-7.311-9.05
			c-1.771-3.599-2.869-7.904-2.886-13.258C221.986,196.312,225.304,187.943,230.387,182.42z"/>
		<path d="M312.351,64.825c-0.129,0.265-0.265,0.505-0.394,0.778c-0.12,0.312-0.176,0.633-0.272,0.946
			c-0.096,0.281-0.168,0.553-0.232,0.842c-0.056,0.329-0.096,0.665-0.104,1.01c-0.031,0.257-0.08,0.497-0.08,0.746
			c0,0.064,0,0.12,0,0.168c0,0.064,0,0.128,0,0.176l1.868,50.709c0.168,5.146,4.433,9.218,9.563,9.178l56.151-0.329
			c5.243-0.024,9.483-4.297,9.483-9.531V67.527c0-2.581-1.082-5.106-2.942-6.886c-1.859-1.788-4.425-2.75-6.989-2.637
			c0,0-2.301,0.104-6.093,0.265c-11.374,0.457-36.176,1.362-51.511,1.362c-0.063,0-0.128,0.016-0.176,0.016
			c-0.049,0-0.12-0.008-0.169-0.008c-0.288,0.008-0.521,0.08-0.793,0.12c-0.329,0.032-0.634,0.056-0.938,0.12
			c-0.305,0.08-0.609,0.176-0.905,0.281c-0.305,0.104-0.577,0.168-0.866,0.305c-0.305,0.136-0.569,0.305-0.833,0.457
			c-0.265,0.152-0.514,0.289-0.778,0.457c-0.232,0.185-0.473,0.385-0.721,0.601c-0.225,0.192-0.441,0.369-0.658,0.585
			c-0.208,0.224-0.4,0.481-0.593,0.737c-0.177,0.225-0.377,0.441-0.529,0.689C312.647,64.248,312.503,64.545,312.351,64.825z
			 M331.838,110.284l-1.17-31.688c13.194-0.216,28.705-0.761,38.589-1.146v32.609L331.838,110.284z"/>
	</g>
</g>
<g display="none">
	<polygon display="inline" points="430.667,352.055 274.916,196.296 422.459,48.753 398.017,24.305 250.475,171.863 102.917,24.305
		78.475,48.745 226.034,196.296 70.283,352.055 94.724,376.496 250.475,220.736 406.226,376.487 	"/>
</g>
<g display="none">
	<g display="inline">
		<g>
			<path d="M102.043,85.018c93.419-14.605,188.039,1.315,281.899-8.016c23.791-2.365,37.659-31.607,5.619-28.425
				c-93.884,9.331-188.305-6.613-281.899,8.016C84.408,60.232,70.123,90.012,102.043,85.018L102.043,85.018z"/>
		</g>
	</g>
	<g display="inline">
		<g>
			<path d="M92.039,207.75c61.202,1.13,121.274-11.014,182.332-12.304c37.339-0.786,77.996,4.481,114.461-6.493
				c9.065-2.726,20.208-7.968,19.848-18.846c-0.017-0.441-0.032-0.882-0.049-1.322c-0.537-16.265-47.094-6.589-46.452,12.449
				c0.016,0.441,0.023,0.881,0.04,1.323c6.613-6.285,13.234-12.562,19.855-18.846c-34.797,10.477-75.551,2.292-111.334,4.192
				c-53.819,2.87-107.086,12.761-161.098,11.767C91.037,179.342,60.56,207.173,92.039,207.75L92.039,207.75z"/>
		</g>
	</g>
	<g display="inline">
		<g>
			<path d="M95.437,336.047c57.411,9.611,116.457,14.477,174.686,15.07c44.152,0.457,89.33-2.518,129.546-22.285
				c28.529-14.02,2.967-38.597-20.496-27.07c-37.283,18.325-82.317,16.858-122.862,14.766c-48.496-2.5-96.776-5.932-144.712-13.963
				C88.905,298.764,64.296,330.828,95.437,336.047L95.437,336.047z"/>
		</g>
	</g>
</g>
<path d="M405.969,305.057c-14.212-50.364-67.936-83.39-108.433-111.639c-7.599-5.299-15.296-10.561-23.018-15.845
	c38.146-40.249,80.794-76.107,116.292-118.992c12.137-14.629-34.172-10.116-42.877,0.401
	c-30.105,36.358-64.796,68.282-98.223,101.459c-40.06-28.13-78.682-58.606-105.592-99.872c-8.634-13.218-51.96,4.032-46.461,12.457
	c31.724,48.653,77.517,82.744,124.642,115.458c-3.368,3.582-6.715,7.184-10.013,10.833
	c-41.467,45.896-69.738,102.388-96.646,157.834c-5.941,3.389-9.808,7.795-8.644,12.457c0.449,1.788,0.89,3.56,1.339,5.348
	c4.088,16.359,41.69,0.136,46.356-9.5c27.121-55.904,54.81-111.078,94.313-159.178c44.063,28.675,96.854,62.848,110.512,111.227
	C363.245,330.708,409.633,318.027,405.969,305.057z"/>
</svg>
