<?xml version="1.0" encoding="utf-8"?>
<!-- Generator: Adobe Illustrator 15.0.0, SVG Export Plug-In . SVG Version: 6.00 Build 0)  -->
<!DOCTYPE svg PUBLIC "-//W3C//DTD SVG 1.1//EN" "http://www.w3.org/Graphics/SVG/1.1/DTD/svg11.dtd">
<svg version="1.1" id="Capa_1" xmlns="http://www.w3.org/2000/svg" xmlns:xlink="http://www.w3.org/1999/xlink" x="0px" y="0px"
	 width="316.719px" height="239.125px" viewBox="0 0 316.719 239.125" enable-background="new 0 0 316.719 239.125"
	 xml:space="preserve">
<g>
	<g>
		<line fill="none" stroke="#9D9D9C" stroke-miterlimit="10" x1="5.781" y1="4.25" x2="5.781" y2="7.25"/>
		
			<line fill="none" stroke="#9D9D9C" stroke-miterlimit="10" stroke-dasharray="5.9611,5.9611" x1="5.781" y1="13.211" x2="5.781" y2="224.832"/>
		<line fill="none" stroke="#9D9D9C" stroke-miterlimit="10" x1="5.781" y1="227.812" x2="5.781" y2="230.812"/>
	</g>
</g>
<g>
	<g>
		<line fill="none" stroke="#9D9D9C" stroke-miterlimit="10" x1="5.781" y1="4.25" x2="8.781" y2="4.25"/>
		
			<line fill="none" stroke="#9D9D9C" stroke-miterlimit="10" stroke-dasharray="6.0797,6.0797" x1="14.861" y1="4.25" x2="303.647" y2="4.25"/>
		<line fill="none" stroke="#9D9D9C" stroke-miterlimit="10" x1="306.688" y1="4.25" x2="309.688" y2="4.25"/>
	</g>
</g>
<g>
	<g>
		<line fill="none" stroke="#9D9D9C" stroke-miterlimit="10" x1="309.688" y1="4.25" x2="309.688" y2="7.25"/>
		
			<line fill="none" stroke="#9D9D9C" stroke-miterlimit="10" stroke-dasharray="5.9611,5.9611" x1="309.688" y1="13.211" x2="309.688" y2="224.832"/>
		<line fill="none" stroke="#9D9D9C" stroke-miterlimit="10" x1="309.688" y1="227.812" x2="309.688" y2="230.812"/>
	</g>
</g>
<g>
	<g>
		<line fill="none" stroke="#9D9D9C" stroke-miterlimit="10" x1="5.781" y1="49.562" x2="8.781" y2="49.562"/>
		
			<line fill="none" stroke="#9D9D9C" stroke-miterlimit="10" stroke-dasharray="6.0797,6.0797" x1="14.861" y1="49.562" x2="303.647" y2="49.562"/>
		<line fill="none" stroke="#9D9D9C" stroke-miterlimit="10" x1="306.688" y1="49.562" x2="309.688" y2="49.562"/>
	</g>
</g>
<g>
	<g>
		<line fill="none" stroke="#9D9D9C" stroke-miterlimit="10" x1="5.781" y1="183.156" x2="8.781" y2="183.156"/>
		
			<line fill="none" stroke="#9D9D9C" stroke-miterlimit="10" stroke-dasharray="6.0797,6.0797" x1="14.861" y1="183.156" x2="303.647" y2="183.156"/>
		<line fill="none" stroke="#9D9D9C" stroke-miterlimit="10" x1="306.688" y1="183.156" x2="309.688" y2="183.156"/>
	</g>
</g>
<g>
	<g>
		<line fill="none" stroke="#9D9D9C" stroke-miterlimit="10" x1="5.781" y1="232.156" x2="8.781" y2="232.156"/>
		
			<line fill="none" stroke="#9D9D9C" stroke-miterlimit="10" stroke-dasharray="6.0797,6.0797" x1="14.861" y1="232.156" x2="303.647" y2="232.156"/>
		<line fill="none" stroke="#9D9D9C" stroke-miterlimit="10" x1="306.688" y1="232.156" x2="309.688" y2="232.156"/>
	</g>
</g>
<g>
	<g>
		<line fill="none" stroke="#9D9D9C" stroke-miterlimit="10" x1="65.156" y1="49.562" x2="65.156" y2="52.562"/>
		
			<line fill="none" stroke="#9D9D9C" stroke-miterlimit="10" stroke-dasharray="6.0759,6.0759" x1="65.156" y1="58.638" x2="65.156" y2="177.118"/>
		<line fill="none" stroke="#9D9D9C" stroke-miterlimit="10" x1="65.156" y1="180.156" x2="65.156" y2="183.156"/>
	</g>
</g>
<g>
	<g>
		<line fill="none" stroke="#9D9D9C" stroke-miterlimit="10" x1="250.219" y1="49.562" x2="250.219" y2="52.562"/>
		
			<line fill="none" stroke="#9D9D9C" stroke-miterlimit="10" stroke-dasharray="6.0759,6.0759" x1="250.219" y1="58.638" x2="250.219" y2="177.118"/>
		<line fill="none" stroke="#9D9D9C" stroke-miterlimit="10" x1="250.219" y1="180.156" x2="250.219" y2="183.156"/>
	</g>
</g>
</svg>
