<?xml version="1.0" encoding="utf-8"?>
<!-- Generator: Adobe Illustrator 15.0.0, SVG Export Plug-In . SVG Version: 6.00 Build 0)  -->
<!DOCTYPE svg PUBLIC "-//W3C//DTD SVG 1.1//EN" "http://www.w3.org/Graphics/SVG/1.1/DTD/svg11.dtd">
<svg version="1.1" id="Capa_1" xmlns="http://www.w3.org/2000/svg" xmlns:xlink="http://www.w3.org/1999/xlink" x="0px" y="0px"
	 width="120px" height="119.667px" viewBox="29.809 9.289 120 119.667" enable-background="new 29.809 9.289 120 119.667"
	 xml:space="preserve">
<path d="M104.076,13.833H76.411c-1.527,0-2.767,1.239-2.767,2.767v33.199c0,1.527,1.239,2.766,2.767,2.766h27.666
	c1.527,0,2.767-1.239,2.767-2.766V16.6C106.843,15.072,105.603,13.833,104.076,13.833z"/>
<path d="M104.076,58.098H76.411c-1.527,0-2.767,1.24-2.767,2.767v60.864c0,1.527,1.239,2.767,2.767,2.767h27.666
	c1.527,0,2.767-1.239,2.767-2.767V60.864C106.843,59.337,105.603,58.098,104.076,58.098z"/>
<path d="M142.808,13.833h-27.666c-1.527,0-2.767,1.239-2.767,2.767v55.331c0,1.527,1.24,2.767,2.767,2.767h27.666
	c1.526,0,2.767-1.239,2.767-2.767V16.6C145.575,15.072,144.334,13.833,142.808,13.833z"/>
<path d="M142.808,80.23h-27.666c-1.527,0-2.767,1.239-2.767,2.767v38.731c0,1.527,1.24,2.767,2.767,2.767h27.666
	c1.526,0,2.767-1.239,2.767-2.767V82.997C145.575,81.47,144.334,80.23,142.808,80.23z"/>
<path d="M65.54,13.833H37.874c-1.526,0-2.766,1.239-2.766,2.767v33.199c0,1.527,1.239,2.766,2.766,2.766H65.54
	c1.527,0,2.767-1.239,2.767-2.766V16.6C68.306,15.072,67.067,13.833,65.54,13.833z"/>
<path d="M65.54,58.098H37.874c-1.526,0-2.766,1.24-2.766,2.767v27.665c0,1.527,1.239,2.768,2.766,2.768H65.54
	c1.527,0,2.767-1.24,2.767-2.768V60.864C68.306,59.337,67.067,58.098,65.54,58.098z"/>
<path d="M65.54,96.83H37.874c-1.526,0-2.766,1.239-2.766,2.766v22.133c0,1.527,1.239,2.767,2.766,2.767H65.54
	c1.527,0,2.767-1.239,2.767-2.767V99.596C68.306,98.069,67.067,96.83,65.54,96.83z"/>
</svg>
