<?xml version="1.0" encoding="utf-8"?>
<!-- Generator: Adobe Illustrator 15.0.0, SVG Export Plug-In . SVG Version: 6.00 Build 0)  -->
<!DOCTYPE svg PUBLIC "-//W3C//DTD SVG 1.1//EN" "http://www.w3.org/Graphics/SVG/1.1/DTD/svg11.dtd">
<svg version="1.1" id="Capa_1" xmlns="http://www.w3.org/2000/svg" xmlns:xlink="http://www.w3.org/1999/xlink" x="0px" y="0px"
	 width="120px" height="119.667px" viewBox="0 0 120 119.667" enable-background="new 0 0 120 119.667" xml:space="preserve">
<g>
	<path fill="#FFFFFF" d="M74.501,5.005H46.836c-1.527,0-2.767,1.239-2.767,2.767v33.199c0,1.527,1.238,2.766,2.767,2.766h27.666
		c1.526,0,2.767-1.239,2.767-2.766V7.772C77.268,6.244,76.028,5.005,74.501,5.005z"/>
	<path fill="#FFFFFF" d="M74.501,49.27H46.836c-1.527,0-2.767,1.24-2.767,2.767v60.864c0,1.526,1.238,2.767,2.767,2.767h27.666
		c1.526,0,2.767-1.238,2.767-2.767V52.037C77.268,50.509,76.028,49.27,74.501,49.27z"/>
	<path fill="#FFFFFF" d="M113.233,5.005H85.567c-1.527,0-2.768,1.239-2.768,2.767v55.331c0,1.527,1.24,2.768,2.768,2.768h27.666
		c1.525,0,2.767-1.24,2.767-2.768V7.772C116,6.244,114.759,5.005,113.233,5.005z"/>
	<path fill="#FFFFFF" d="M113.233,71.402H85.567c-1.527,0-2.768,1.238-2.768,2.768v38.73c0,1.527,1.24,2.768,2.768,2.768h27.666
		c1.525,0,2.767-1.24,2.767-2.768v-38.73C116,72.642,114.759,71.402,113.233,71.402z"/>
	<path fill="#FFFFFF" d="M35.965,5.005H8.299c-1.526,0-2.766,1.239-2.766,2.767v33.199c0,1.527,1.239,2.766,2.766,2.766h27.666
		c1.526,0,2.767-1.239,2.767-2.766V7.772C38.731,6.244,37.491,5.005,35.965,5.005z"/>
	<path fill="#FFFFFF" d="M35.965,49.27H8.299c-1.526,0-2.766,1.24-2.766,2.767v27.665c0,1.527,1.239,2.769,2.766,2.769h27.666
		c1.526,0,2.767-1.24,2.767-2.769V52.037C38.731,50.509,37.491,49.27,35.965,49.27z"/>
	<path fill="#FFFFFF" d="M35.965,88.001H8.299c-1.526,0-2.766,1.239-2.766,2.767v22.133c0,1.526,1.239,2.767,2.766,2.767h27.666
		c1.526,0,2.767-1.238,2.767-2.767V90.768C38.731,89.241,37.491,88.001,35.965,88.001z"/>
</g>
</svg>
